<?xml version="1.0" encoding="UTF-8" standalone="no"?>
<!-- Generator: Adobe Illustrator 12.0.1, SVG Export Plug-In . SVG Version: 6.00 Build 51448)  -->

<svg
   xmlns:dc="http://purl.org/dc/elements/1.1/"
   xmlns:cc="http://creativecommons.org/ns#"
   xmlns:rdf="http://www.w3.org/1999/02/22-rdf-syntax-ns#"
   xmlns:svg="http://www.w3.org/2000/svg"
   xmlns="http://www.w3.org/2000/svg"
   xmlns:sodipodi="http://sodipodi.sourceforge.net/DTD/sodipodi-0.dtd"
   xmlns:inkscape="http://www.inkscape.org/namespaces/inkscape"
   version="1.1"
   id="Layer_1"
   width="475.95734"
   height="319.77066"
   viewBox="0 0 446.20999 299.785"
   style="overflow:visible"
   xml:space="preserve"
   sodipodi:version="0.32"
   inkscape:version="0.92.2 (5c3e80d, 2017-08-06)"
   sodipodi:docname="daunorubicin.svg"
   inkscape:output_extension="org.inkscape.output.svg.inkscape"><metadata
     id="metadata226"><rdf:RDF><cc:Work
         rdf:about=""><dc:format>image/svg+xml</dc:format><dc:type
           rdf:resource="http://purl.org/dc/dcmitype/StillImage" /><dc:title></dc:title></cc:Work></rdf:RDF></metadata><defs
     id="defs224" /><sodipodi:namedview
     inkscape:window-height="986"
     inkscape:window-width="1920"
     inkscape:pageshadow="2"
     inkscape:pageopacity="0.0"
     guidetolerance="10.0"
     gridtolerance="10.0"
     objecttolerance="10.0"
     borderopacity="1.0"
     bordercolor="#666666"
     pagecolor="#ffffff"
     id="base"
     inkscape:zoom="1.2609036"
     inkscape:cx="223.105"
     inkscape:cy="149.8925"
     inkscape:window-x="-11"
     inkscape:window-y="-11"
     inkscape:current-layer="Layer_1"
     showgrid="false"
     inkscape:window-maximized="1" /><path
     style="fill:#231f20"
     d="m 407.80973,169.1438 2.16695,0.5453 c -0.4522,1.7765 -1.2654,3.1312 -2.4396,4.06315 -1.17611,0.93195 -2.6125,1.39935 -4.31016,1.39935 -1.75749,0 -3.1863,-0.35815 -4.2883,-1.0754 -1.10009,-0.7163 -1.93895,-1.7556 -2.51275,-3.1141 -0.57475,-1.35945 -0.8626,-2.8196 -0.8626,-4.37855 0,-1.7005 0.3249,-3.18535 0.9728,-4.4517 0.6479,-1.26635 1.57036,-2.22965 2.76925,-2.8861 1.197,-0.65645 2.51371,-0.9861 3.952,-0.9861 1.63116,0 3.002,0.4161 4.11351,1.2483 1.11149,0.83315 1.88574,2.0026 2.32275,3.51215 l -2.12231,0.50065 c -0.37715,-1.1875 -0.92625,-2.052 -1.64349,-2.5935 -0.72011,-0.5415 -1.62356,-0.81225 -2.71226,-0.81225 -1.2521,0 -2.299,0.3002 -3.14165,0.90155 -0.84075,0.60135 -1.43165,1.4079 -1.77175,2.42155 -0.34105,1.0127 -0.51205,2.0577 -0.51205,3.13405 0,1.38795 0.20235,2.5992 0.60611,3.6347 0.40375,1.0355 1.03074,1.8088 1.88194,2.32085 0.8512,0.51205 1.77366,0.76855 2.7664,0.76855 1.20746,0 2.2287,-0.34865 3.06566,-1.0469 0.83694,-0.69825 1.40315,-1.73185 1.69955,-3.10555 z"
     id="path5"
     inkscape:connector-curvature="0" /><path
     style="fill:#231f20"
     d="m 412.72692,174.8704 v -16.3286 h 2.16695 v 6.70985 h 8.44646 v -6.70985 h 2.16694 v 16.3286 h -2.16694 v -7.6893 h -8.44646 v 7.6893 z"
     id="path7"
     inkscape:connector-curvature="0" /><path
     style="fill:#231f20"
     d="m 427.02443,175.90875 1.49909,-0.20805 c 0.17385,0.8512 0.46741,1.4649 0.8816,1.8411 0.41515,0.37525 0.92436,0.56335 1.52666,0.56335 0.71534,0 1.31764,-0.2451 1.80309,-0.7334 0.4883,-0.4902 0.7315,-1.0963 0.7315,-1.8202 0,-0.6897 -0.22609,-1.2578 -0.68019,-1.7062 -0.45315,-0.4484 -1.02886,-0.67165 -1.72806,-0.67165 -0.28594,0 -0.64125,0.056 -1.0659,0.1672 l 0.16815,-1.32145 c 0.0998,0.0114 0.18146,0.0171 0.2432,0.0171 0.6403,0 1.21695,-0.16625 1.72995,-0.4997 0.51301,-0.33345 0.7695,-0.8474 0.7695,-1.54185 0,-0.55005 -0.18715,-1.00605 -0.56145,-1.3661 -0.3743,-0.36005 -0.8569,-0.5415 -1.44874,-0.5415 -0.58616,0 -1.0754,0.1843 -1.46681,0.5529 -0.39045,0.3686 -0.6422,0.9215 -0.75334,1.6587 l -1.49911,-0.26695 c 0.18335,-1.0089 0.6023,-1.79075 1.254,-2.3446 0.65171,-0.5548 1.46206,-0.8322 2.43296,-0.8322 0.6688,0 1.28534,0.1425 1.84775,0.4294 0.56239,0.28595 0.99275,0.6764 1.29105,1.1704 0.29734,0.49495 0.44745,1.01935 0.44745,1.5751 0,0.5282 -0.14156,1.0089 -0.42561,1.4421 -0.28405,0.4332 -0.70395,0.7771 -1.26065,1.0336 0.7239,0.1672 1.28631,0.51395 1.69006,1.0393 0.40279,0.52725 0.60515,1.18465 0.60515,1.97505 0,1.0697 -0.39045,1.97505 -1.17041,2.71795 -0.7809,0.7429 -1.76795,1.1153 -2.96115,1.1153 -1.07635,0 -1.9703,-0.32015 -2.6809,-0.95855 -0.71249,-0.6403 -1.11815,-1.46775 -1.21884,-2.48615 z"
     id="path11"
     inkscape:connector-curvature="0" /><path
     style="fill:#231f20"
     d="m 329.49363,166.9227 c 0,-2.71035 0.72769,-4.83075 2.18404,-6.3631 1.45445,-1.5333 3.3345,-2.29995 5.63541,-2.29995 1.50859,0 2.86709,0.36005 4.07644,1.08015 1.21031,0.72105 2.1337,1.72425 2.76831,3.01245 0.63459,1.2882 0.95189,2.7493 0.95189,4.3814 0,1.65585 -0.3344,3.1369 -1.00225,4.44315 -0.66784,1.30625 -1.61499,2.29615 -2.84049,2.9678 -1.22456,0.67165 -2.54695,1.00795 -3.96531,1.00795 -1.53615,0 -2.9108,-0.37145 -4.1211,-1.1134 -1.2103,-0.74195 -2.1261,-1.75655 -2.7512,-3.04 -0.62509,-1.28345 -0.93574,-2.6429 -0.93574,-4.07645 z m 2.22679,0.0285 c 0,1.9665 0.52915,3.51595 1.5884,4.64835 1.05736,1.13145 2.3864,1.69765 3.98146,1.69765 1.62734,0 2.96495,-0.5719 4.01754,-1.71475 1.04976,-1.14285 1.57511,-2.7645 1.57511,-4.86495 0,-1.3281 -0.2242,-2.48805 -0.67355,-3.4789 -0.44936,-0.99085 -1.10676,-1.7594 -1.97221,-2.3047 -0.86449,-0.5453 -1.83539,-0.81795 -2.91269,-0.81795 -1.52856,0 -2.84621,0.52535 -3.9482,1.5751 -1.10486,1.04975 -1.65586,2.80345 -1.65586,5.26015 z"
     id="path15"
     inkscape:connector-curvature="0" /><path
     style="fill:#231f20"
     d="m 264.18208,166.9227 c 0,-2.71035 0.7277,-4.83075 2.18309,-6.3631 1.4554,-1.5333 3.3345,-2.29995 5.63635,-2.29995 1.50765,0 2.86615,0.36005 4.07645,1.08015 1.21031,0.72105 2.13275,1.72425 2.7683,3.01245 0.63556,1.2882 0.9519,2.7493 0.9519,4.3814 0,1.65585 -0.33439,3.1369 -1.00225,4.44315 -0.66785,1.30625 -1.61499,2.29615 -2.8405,2.9678 -1.2255,0.67165 -2.54695,1.00795 -3.9653,1.00795 -1.5371,0 -2.91079,-0.37145 -4.12109,-1.1134 -1.2103,-0.74195 -2.12706,-1.75655 -2.75121,-3.04 -0.62414,-1.28345 -0.93574,-2.6429 -0.93574,-4.07645 z m 2.22679,0.0285 c 0,1.9665 0.52915,3.51595 1.58745,4.64835 1.0583,1.1324 2.3864,1.69765 3.98241,1.69765 1.62639,0 2.96495,-0.5719 4.01659,-1.71475 1.0507,-1.14285 1.57605,-2.7645 1.57605,-4.86495 0,-1.3281 -0.2242,-2.48805 -0.67355,-3.4789 -0.44935,-0.99085 -1.10674,-1.7594 -1.97219,-2.3047 -0.86545,-0.5453 -1.83635,-0.81795 -2.9127,-0.81795 -1.52951,0 -2.84621,0.52535 -3.94915,1.5751 -1.10295,1.04975 -1.65491,2.80345 -1.65491,5.26015 z"
     id="path19"
     inkscape:connector-curvature="0" /><path
     style="fill:#231f20"
     d="m 198.91708,166.9227 c 0,-2.71035 0.72769,-4.83075 2.1831,-6.3631 1.45539,-1.5333 3.3345,-2.29995 5.63635,-2.29995 1.50764,0 2.86615,0.36005 4.07644,1.08015 1.2103,0.72105 2.13276,1.72425 2.76831,3.01245 0.63555,1.2882 0.9519,2.7493 0.9519,4.3814 0,1.65585 -0.33441,3.1369 -1.00225,4.44315 -0.66785,1.30625 -1.61501,2.29615 -2.8405,2.9678 -1.2255,0.67165 -2.54695,1.00795 -3.96531,1.00795 -1.53709,0 -2.91079,-0.37145 -4.12109,-1.1134 -1.21031,-0.74195 -2.12705,-1.75655 -2.7512,-3.04 -0.62415,-1.28345 -0.93575,-2.6429 -0.93575,-4.07645 z m 2.2268,0.0285 c 0,1.9665 0.52915,3.51595 1.58745,4.64835 1.0583,1.1324 2.38639,1.69765 3.98239,1.69765 1.6264,0 2.96496,-0.5719 4.0166,-1.71475 1.05071,-1.14285 1.57606,-2.7645 1.57606,-4.86495 0,-1.3281 -0.2242,-2.48805 -0.67355,-3.4789 -0.44935,-0.99085 -1.10676,-1.7594 -1.9722,-2.3047 -0.86545,-0.5453 -1.83635,-0.81795 -2.9127,-0.81795 -1.5295,0 -2.8462,0.52535 -3.94916,1.5751 -1.10295,1.04975 -1.65489,2.80345 -1.65489,5.26015 z"
     id="path23"
     inkscape:connector-curvature="0" /><path
     style="fill:#231f20"
     d="m 217.39362,174.8704 v -16.3286 h 2.16696 v 6.70985 h 8.44644 v -6.70985 h 2.16695 v 16.3286 h -2.16695 v -7.6893 h -8.44644 v 7.6893 z"
     id="path25"
     inkscape:connector-curvature="0" /><path
     style="fill:#231f20"
     d="m 133.60458,166.9227 c 0,-2.71035 0.7277,-4.83075 2.1831,-6.3631 1.45539,-1.5333 3.3345,-2.29995 5.63635,-2.29995 1.50764,0 2.86615,0.36005 4.07644,1.08015 1.2103,0.72105 2.13276,1.72425 2.76831,3.01245 0.63555,1.2882 0.9519,2.7493 0.9519,4.3814 0,1.65585 -0.33441,3.1369 -1.00225,4.44315 -0.66785,1.30625 -1.61501,2.29615 -2.8405,2.9678 -1.2255,0.67165 -2.54695,1.00795 -3.96531,1.00795 -1.53709,0 -2.91079,-0.37145 -4.12109,-1.1134 -1.2103,-0.74195 -2.12705,-1.75655 -2.7512,-3.04 -0.62415,-1.28345 -0.93575,-2.6429 -0.93575,-4.07645 z m 2.22584,0.0285 c 0,1.9665 0.52916,3.51595 1.58745,4.64835 1.0583,1.1324 2.3864,1.69765 3.9824,1.69765 1.62641,0 2.96496,-0.5719 4.01661,-1.71475 1.05069,-1.14285 1.57604,-2.7645 1.57604,-4.86495 0,-1.3281 -0.2242,-2.48805 -0.67355,-3.4789 -0.44934,-0.99085 -1.10674,-1.7594 -1.9722,-2.3047 -0.86545,-0.5453 -1.83634,-0.81795 -2.9127,-0.81795 -1.52949,0 -2.8462,0.52535 -3.94914,1.5751 -1.10295,1.04975 -1.65491,2.80345 -1.65491,5.26015 z"
     id="path29"
     inkscape:connector-curvature="0" /><path
     style="fill:#231f20"
     d="m 133.60458,16.1577 c 0,-2.71035 0.7277,-4.83075 2.1831,-6.3631 1.45539,-1.5333 3.33354,-2.29995 5.63539,-2.29995 1.50766,0 2.86615,0.36005 4.07645,1.08015 1.21031,0.72105 2.13275,1.72425 2.76831,3.01245 0.63554,1.2882 0.95189,2.7493 0.95189,4.3814 0,1.65585 -0.33439,3.1369 -1.00224,4.44315 -0.66786,1.30625 -1.615,2.29615 -2.84051,2.9678 -1.22549,0.67165 -2.54695,1.00795 -3.96529,1.00795 -1.53711,0 -2.9108,-0.37145 -4.12111,-1.1134 -1.21029,-0.74195 -2.12705,-1.75655 -2.7512,-3.04 -0.62415,-1.28345 -0.93479,-2.6429 -0.93479,-4.07645 z m 2.22584,0.02755 c 0,1.9665 0.52916,3.51595 1.58745,4.64835 1.0583,1.1324 2.3864,1.69765 3.9824,1.69765 1.62641,0 2.96496,-0.5719 4.01661,-1.71475 1.05069,-1.14285 1.57604,-2.7645 1.57604,-4.86495 0,-1.3281 -0.2242,-2.48805 -0.67355,-3.4789 -0.44934,-0.99085 -1.10674,-1.7594 -1.9722,-2.3047 -0.86545,-0.5453 -1.83634,-0.81795 -2.9127,-0.81795 -1.52949,0 -2.8462,0.52535 -3.94914,1.5751 -1.10295,1.04975 -1.65491,2.8044 -1.65491,5.26015 z"
     id="path33"
     inkscape:connector-curvature="0" /><path
     style="fill:#231f20"
     d="m 199.05198,16.1577 c 0,-2.71035 0.7277,-4.83075 2.18309,-6.3631 1.45446,-1.5333 3.33356,-2.29995 5.63541,-2.29995 1.50669,0 2.86614,0.36005 4.07644,1.08015 1.2103,0.72105 2.13275,1.72425 2.76831,3.01245 0.6346,1.28725 0.9519,2.7493 0.9519,4.3814 0,1.65585 -0.3344,3.1369 -1.00226,4.44315 -0.6688,1.30625 -1.615,2.29615 -2.84049,2.9678 -1.22551,0.67165 -2.54695,1.00795 -3.96531,1.00795 -1.5371,0 -2.91079,-0.37145 -4.12109,-1.1134 -1.20935,-0.74195 -2.12706,-1.75655 -2.75121,-3.04 -0.62319,-1.2844 -0.93479,-2.6429 -0.93479,-4.07645 z m 2.22584,0.02755 c 0,1.9665 0.52915,3.51595 1.58746,4.64835 1.05829,1.1324 2.38544,1.69765 3.98239,1.69765 1.62641,0 2.96496,-0.5719 4.01566,-1.71475 1.05069,-1.14285 1.57699,-2.7645 1.57699,-4.86495 0,-1.3281 -0.22515,-2.48805 -0.67354,-3.4789 -0.44936,-0.99085 -1.10676,-1.7594 -1.97221,-2.3047 -0.86544,-0.5453 -1.83634,-0.81795 -2.9127,-0.81795 -1.53044,0 -2.84714,0.52535 -3.94914,1.5751 -1.102,1.04975 -1.65491,2.8044 -1.65491,5.26015 z"
     id="path35"
     inkscape:connector-curvature="0" /><path
     style="fill:#231f20"
     d="M 217.26917,24.10445 V 7.7768 h 2.16696 v 6.70985 h 8.44644 V 7.7768 h 2.16695 v 16.3286 h -2.16695 v -7.6893 h -8.44644 v 7.6893 h -2.16696 z"
     id="path39"
     inkscape:connector-curvature="0" /><path
     style="fill:#231f20"
     d="m 329.76343,16.1577 c 0,-2.71035 0.7277,-4.83075 2.1831,-6.3631 1.4554,-1.5333 3.3326,-2.29995 5.6354,-2.29995 1.5067,0 2.8671,0.36005 4.07645,1.08015 1.20935,0.72105 2.13275,1.72425 2.7683,3.01245 0.6346,1.28725 0.9519,2.7493 0.9519,4.3814 0,1.65585 -0.3344,3.1369 -1.00225,4.44315 -0.6688,1.30625 -1.61595,2.29615 -2.8405,2.9678 -1.22455,0.67165 -2.5479,1.00795 -3.9653,1.00795 -1.5371,0 -2.9108,-0.37145 -4.1211,-1.1134 -1.2103,-0.74195 -2.128,-1.75655 -2.7512,-3.04 -0.6232,-1.28345 -0.9348,-2.6429 -0.9348,-4.07645 z m 2.2268,0.02755 c 0,1.9665 0.52915,3.51595 1.58745,4.64835 1.0583,1.1324 2.38545,1.69765 3.9824,1.69765 1.6264,0 2.96495,-0.5719 4.01565,-1.71475 1.05165,-1.14285 1.577,-2.7645 1.577,-4.86495 0,-1.3281 -0.2242,-2.48805 -0.67355,-3.4789 -0.4503,-0.99085 -1.1077,-1.7594 -1.9722,-2.3047 -0.8645,-0.5453 -1.8373,-0.81795 -2.9127,-0.81795 -1.53045,0 -2.8462,0.52535 -3.94915,1.5751 -1.10295,1.04975 -1.6549,2.8044 -1.6549,5.26015 z"
     id="path41"
     inkscape:connector-curvature="0" /><path
     style="fill:#231f20"
     d="m 375.12972,74.9038 2.16695,0.5453 c -0.4522,1.7765 -1.26634,3.1312 -2.44054,4.06315 -1.17516,0.93195 -2.6125,1.39935 -4.31015,1.39935 -1.7575,0 -3.18631,-0.35815 -4.28736,-1.0754 -1.10104,-0.7163 -1.93894,-1.7556 -2.5137,-3.1141 -0.57475,-1.35945 -0.86165,-2.8196 -0.86165,-4.37855 0,-1.7005 0.32395,-3.18535 0.9728,-4.4517 0.64791,-1.26635 1.57035,-2.22965 2.7683,-2.8861 1.197,-0.65645 2.51371,-0.9861 3.952,-0.9861 1.63115,0 3.002,0.4161 4.1135,1.2483 1.11246,0.83315 1.8867,2.0026 2.3237,3.51215 l -2.12229,0.50065 c -0.37716,-1.1875 -0.92721,-2.052 -1.64445,-2.5935 -0.71916,-0.5415 -1.62356,-0.81225 -2.71226,-0.81225 -1.2521,0 -2.299,0.3002 -3.1407,0.90155 -0.8417,0.60135 -1.43165,1.4079 -1.7727,2.42155 -0.34105,1.01365 -0.5111,2.0577 -0.5111,3.13405 0,1.38795 0.2014,2.5992 0.6061,3.6347 0.4028,1.0355 1.03075,1.8088 1.88195,2.32085 0.8512,0.51205 1.77365,0.76855 2.76545,0.76855 1.20745,0 2.22966,-0.34865 3.0666,-1.0469 0.83696,-0.69825 1.4041,-1.7328 1.69955,-3.10555 z"
     id="path45"
     inkscape:connector-curvature="0" /><path
     style="fill:#231f20"
     d="M 380.04692,80.62945 V 64.3018 h 2.16696 v 6.70985 h 8.44645 V 64.3018 h 2.16694 v 16.3286 h -2.16694 v -7.6893 h -8.44645 v 7.6893 h -2.16696 z"
     id="path47"
     inkscape:connector-curvature="0" /><path
     style="fill:#231f20"
     d="m 394.34443,81.66875 1.4991,-0.20805 c 0.1748,0.8512 0.4674,1.4649 0.88159,1.8411 0.4161,0.37525 0.92436,0.56335 1.52666,0.56335 0.7163,0 1.31765,-0.2451 1.80405,-0.7334 0.48735,-0.4902 0.73054,-1.0963 0.73054,-1.8202 0,-0.6897 -0.2261,-1.2578 -0.67924,-1.7062 -0.45315,-0.4484 -1.02981,-0.67165 -1.729,-0.67165 -0.28595,0 -0.64031,0.05605 -1.06495,0.1672 l 0.16719,-1.32145 c 0.10071,0.0114 0.18145,0.0171 0.2432,0.0171 0.64126,0 1.21695,-0.16625 1.73091,-0.4997 0.51204,-0.33345 0.76855,-0.8474 0.76855,-1.54185 0,-0.55005 -0.18716,-1.00605 -0.56051,-1.3661 -0.37525,-0.361 -0.8569,-0.5415 -1.44874,-0.5415 -0.58616,0 -1.07635,0.1843 -1.4668,0.5529 -0.39045,0.3686 -0.64316,0.9215 -0.75431,1.6587 l -1.49909,-0.26695 c 0.18334,-1.0089 0.60324,-1.79075 1.25399,-2.3446 0.65265,-0.5548 1.46301,-0.8322 2.43295,-0.8322 0.66976,0 1.28631,0.1425 1.84775,0.4294 0.5624,0.28595 0.99275,0.6764 1.29105,1.1704 0.2983,0.494 0.44746,1.01935 0.44746,1.5751 0,0.5282 -0.14061,1.0089 -0.42465,1.4421 -0.28406,0.4332 -0.7049,0.7771 -1.26161,1.0336 0.7239,0.1672 1.28725,0.51395 1.69005,1.0393 0.40375,0.52725 0.60515,1.18465 0.60515,1.97505 0,1.0697 -0.3895,1.97505 -1.17039,2.71795 -0.78091,0.7429 -1.76795,1.1153 -2.96116,1.1153 -1.07635,0 -1.9703,-0.32015 -2.6809,-0.95855 -0.71249,-0.6403 -1.1191,-1.4687 -1.21884,-2.48615 z"
     id="path51"
     inkscape:connector-curvature="0" /><path
     style="fill:#231f20"
     d="m 329.49363,91.54115 c 0,-2.71035 0.72769,-4.83075 2.18404,-6.3631 1.45445,-1.5333 3.3345,-2.29995 5.63541,-2.29995 1.50859,0 2.86709,0.36005 4.07644,1.08015 1.21031,0.72105 2.1337,1.72425 2.76831,3.01245 0.63459,1.2882 0.95189,2.7493 0.95189,4.3814 0,1.65585 -0.3344,3.1369 -1.00225,4.44315 -0.66784,1.30625 -1.61499,2.29615 -2.84049,2.9678 -1.22456,0.67165 -2.54695,1.00795 -3.96531,1.00795 -1.53615,0 -2.9108,-0.37145 -4.1211,-1.1134 -1.2103,-0.74195 -2.1261,-1.75655 -2.7512,-3.04 -0.62509,-1.28345 -0.93574,-2.6429 -0.93574,-4.07645 z m 2.22679,0.02755 c 0,1.9665 0.52915,3.51595 1.5884,4.64835 1.05736,1.13145 2.3864,1.69765 3.98146,1.69765 1.62734,0 2.96495,-0.5719 4.01754,-1.71475 1.04976,-1.14285 1.57511,-2.7645 1.57511,-4.86495 0,-1.3281 -0.2242,-2.48805 -0.67355,-3.4789 -0.44936,-0.99085 -1.10676,-1.7594 -1.97221,-2.3047 -0.86449,-0.5453 -1.83539,-0.81795 -2.91269,-0.81795 -1.52856,0 -2.84621,0.52535 -3.9482,1.5751 -1.10486,1.04975 -1.65586,2.80345 -1.65586,5.26015 z"
     id="path55"
     inkscape:connector-curvature="0" /><path
     style="fill:#231f20"
     d="M 347.97017,99.4879 V 83.1593 h 2.16695 v 6.70985 h 8.44646 V 83.1593 h 2.16694 v 16.3286 h -2.16694 v -7.6893 h -8.44646 v 7.6893 z"
     id="path57"
     inkscape:connector-curvature="0" /><path
     style="fill:#231f20"
     d="m 330.84452,288.0154 v -16.3286 h 2.223 l 8.5538,12.81455 V 271.6868 h 2.07861 v 16.3286 h -2.22301 l -8.5538,-12.81455 v 12.81455 z"
     id="path61"
     inkscape:connector-curvature="0" /><path
     style="fill:#231f20"
     d="m 347.41442,288.0154 v -16.3286 h 2.16695 v 6.70985 h 8.44646 v -6.70985 h 2.16694 v 16.3286 h -2.16694 v -7.6893 h -8.44646 v 7.6893 z"
     id="path63"
     inkscape:connector-curvature="0" /><path
     style="fill:#231f20"
     d="m 370.43768,290.85115 v 1.4402 h -8.10446 c -0.0114,-0.36195 0.0475,-0.70965 0.1767,-1.04405 0.2071,-0.551 0.53865,-1.09345 0.9956,-1.62735 0.45695,-0.5339 1.11245,-1.15045 1.9665,-1.84965 1.32621,-1.09535 2.22491,-1.9608 2.69801,-2.5973 0.4731,-0.6365 0.70965,-1.23975 0.70965,-1.80785 0,-0.5947 -0.2147,-1.09535 -0.64125,-1.5048 -0.42846,-0.4085 -0.98516,-0.61275 -1.67296,-0.61275 -0.72769,0 -1.30815,0.21755 -1.7442,0.6536 -0.43605,0.43605 -0.65644,1.0393 -0.66214,1.80975 l -1.54375,-0.1634 c 0.10544,-1.1552 0.50444,-2.0349 1.197,-2.6391 0.6916,-0.6061 1.62069,-0.9082 2.78729,-0.9082 1.17706,0 2.10901,0.32585 2.7949,0.97755 0.6859,0.6517 1.02886,1.4592 1.02886,2.4225 0,0.4902 -0.10071,0.97185 -0.30115,1.44495 -0.20045,0.4731 -0.53485,0.97185 -1.00036,1.4953 -0.46645,0.52345 -1.23974,1.24165 -2.318,2.1546 -0.9025,0.7581 -1.4839,1.2711 -1.74135,1.54185 -0.25745,0.26885 -0.4712,0.54055 -0.63934,0.8132 h 6.01445 z"
     id="path67"
     inkscape:connector-curvature="0" /><path
     style="fill:#231f20"
     d="m 394.80613,242.35365 c 0,-2.71035 0.72769,-4.83075 2.18404,-6.3631 1.45445,-1.5333 3.3345,-2.29995 5.63541,-2.29995 1.50859,0 2.86709,0.36005 4.07644,1.08015 1.21031,0.72105 2.1337,1.72425 2.76831,3.01245 0.63459,1.2882 0.95189,2.7493 0.95189,4.3814 0,1.65585 -0.3344,3.1369 -1.00225,4.44315 -0.66784,1.30625 -1.61499,2.29615 -2.84049,2.9678 -1.22456,0.67165 -2.54695,1.00795 -3.96531,1.00795 -1.53615,0 -2.9108,-0.37145 -4.1211,-1.1134 -1.2103,-0.74195 -2.1261,-1.75655 -2.7512,-3.04 -0.62509,-1.28345 -0.93574,-2.6429 -0.93574,-4.07645 z m 2.22679,0.0276 c 0,1.9665 0.52915,3.51595 1.5884,4.64835 1.05735,1.13145 2.3864,1.69765 3.98146,1.69765 1.62734,0 2.96495,-0.5719 4.01754,-1.71475 1.04976,-1.14285 1.57511,-2.7645 1.57511,-4.86495 0,-1.3281 -0.2242,-2.48805 -0.67355,-3.4789 -0.44936,-0.99085 -1.10676,-1.7594 -1.97221,-2.3047 -0.86449,-0.5453 -1.8354,-0.81795 -2.91269,-0.81795 -1.52856,0 -2.84621,0.52535 -3.9482,1.5751 -1.10486,1.04975 -1.65586,2.80345 -1.65586,5.26015 z"
     id="path71"
     inkscape:connector-curvature="0" /><path
     style="fill:#231f20"
     d="m 413.28267,250.3004 v -16.3286 h 2.16695 v 6.70985 h 8.44646 v -6.70985 h 2.16694 v 16.3286 h -2.16694 v -7.6893 h -8.44646 v 7.6893 z"
     id="path73"
     inkscape:connector-curvature="0" /><path
     style="fill:#231f20"
     d="m 370.76637,185.2729 -0.8075,-0.5225 -0.0485,-0.95 22.08751,-15.96 3.65844,6.27 z"
     id="polygon75"
     inkscape:connector-curvature="0" /><path
     style="fill:#231f20"
     d="m 370.76637,221.94195 -0.8075,0.52345 -0.80845,-0.475 v -36.765 l 0.80845,-0.475 0.8075,0.5225 z"
     id="polygon77"
     inkscape:connector-curvature="0" /><path
     style="fill:#231f20"
     d="m 338.13387,241.7504 -0.85499,-0.4275 v -0.95 l 31.87154,-18.3825 0.80845,0.475 -0.0485,0.95 z"
     id="polygon79"
     inkscape:connector-curvature="0" /><path
     style="fill:#231f20"
     d="m 303.83792,222.9404 1.61595,-0.95 31.82501,18.3825 v 0.95 l -0.80751,0.4275 z"
     id="polygon81"
     inkscape:connector-curvature="0" /><path
     style="fill:#231f20"
     d="m 303.83792,184.3229 1.61595,0.9025 v 36.765 l -1.61595,0.95 z"
     id="polygon83"
     inkscape:connector-curvature="0" /><path
     style="fill:#231f20"
     d="m 327.63543,170.5954 0.80844,1.3775 -22.99,13.2525 -1.61595,-0.9025 z"
     id="polygon85"
     inkscape:connector-curvature="0" /><path
     style="fill:#231f20"
     d="m 346.20887,171.9729 0.8075,-1.3775 22.89405,13.205 0.0485,0.95 -0.80845,0.475 z"
     id="polygon87"
     inkscape:connector-curvature="0" /><path
     style="fill:#231f20"
     d="m 279.47137,174.44195 3.6575,-6.31655 1.28155,0.9975 -3.41904,5.9375 z"
     id="polygon89"
     inkscape:connector-curvature="0" /><path
     style="fill:#231f20"
     d="m 283.46042,176.10445 3.08751,-5.36655 1.28344,0.95 -2.89749,5.0825 z"
     id="polygon91"
     inkscape:connector-curvature="0" /><path
     style="fill:#231f20"
     d="m 287.40388,177.76695 2.56499,-4.46405 1.32906,0.9975 -2.4225,4.1325 z"
     id="polygon93"
     inkscape:connector-curvature="0" /><path
     style="fill:#231f20"
     d="m 291.34637,179.4779 2.04156,-3.5625 1.33094,0.95 -1.85249,3.23 z"
     id="polygon95"
     inkscape:connector-curvature="0" /><path
     style="fill:#231f20"
     d="m 295.28792,181.1404 1.52096,-2.66095 1.32905,0.99845 -1.32905,2.28 z"
     id="polygon97"
     inkscape:connector-curvature="0" /><path
     style="fill:#231f20"
     d="m 299.23138,182.8029 1.04404,-1.7575 1.28346,0.99655 -0.80845,1.425 z"
     id="polygon99"
     inkscape:connector-curvature="0" /><path
     style="fill:#231f20"
     d="m 271.20637,132.2629 h 1.615 l 0.18906,1.615 h -1.99406 z"
     id="polygon101"
     inkscape:connector-curvature="0" /><path
     style="fill:#231f20"
     d="m 270.68388,136.7279 h 2.65999 l 0.19,1.615 h -3.03999 z"
     id="polygon103"
     inkscape:connector-curvature="0" /><path
     style="fill:#231f20"
     d="m 270.16042,141.1454 h 3.70596 l 0.19,1.615 h -4.08501 z"
     id="polygon105"
     inkscape:connector-curvature="0" /><path
     style="fill:#231f20"
     d="m 269.59138,145.6104 h 4.79655 l 0.19094,1.615 h -5.17845 z"
     id="polygon107"
     inkscape:connector-curvature="0" /><path
     style="fill:#231f20"
     d="m 269.06887,150.0279 h 5.84155 l 0.19,1.615 h -6.22155 z"
     id="polygon109"
     inkscape:connector-curvature="0" /><path
     style="fill:#231f20"
     d="m 268.54637,154.49195 h 6.88751 l 0.18905,1.61595 h -7.26655 z"
     id="polygon111"
     inkscape:connector-curvature="0" /><path
     style="fill:#231f20"
     d="m 303.83792,108.8929 1.61595,0.95 -33.44094,19.285 v -1.8525 z"
     id="polygon113"
     inkscape:connector-curvature="0" /><path
     style="fill:#231f20"
     d="m 303.83792,72.1279 0.80845,-0.475 0.8075,0.475 v 37.715 l -1.61595,-0.95 z"
     id="polygon115"
     inkscape:connector-curvature="0" /><path
     style="fill:#231f20"
     d="m 272.01293,53.7454 v -1.8525 l 32.63344,18.8575 v 0.9025 l -0.80845,0.475 z"
     id="polygon117"
     inkscape:connector-curvature="0" /><path
     style="fill:#231f20"
     d="m 240.14138,72.1279 -0.80751,-0.475 v -0.9025 l 32.67906,-18.8575 v 1.8525 z"
     id="polygon119"
     inkscape:connector-curvature="0" /><path
     style="fill:#231f20"
     d="m 206.70043,53.7454 v -0.95 l 0.80844,-0.4275 31.825,18.3825 v 0.9025 l -0.80845,0.475 z"
     id="polygon121"
     inkscape:connector-curvature="0" /><path
     style="fill:#231f20"
     d="m 206.32137,60.0629 0.8075,-1.425 26.98,15.58 -0.80845,1.425 z"
     id="polygon123"
     inkscape:connector-curvature="0" /><path
     style="fill:#231f20"
     d="m 174.87542,72.1279 -0.80655,-0.475 v -0.9025 l 31.82501,-18.3825 0.80655,0.4275 v 0.95 z"
     id="polygon125"
     inkscape:connector-curvature="0" /><path
     style="fill:#231f20"
     d="m 174.87542,108.8929 -0.80655,0.475 -0.80844,-0.475 v -36.765 l 0.80844,-0.475 0.80655,0.475 z"
     id="polygon127"
     inkscape:connector-curvature="0" /><path
     style="fill:#231f20"
     d="m 178.91293,74.930401 h 1.615 V 106.0904 h -1.615 z"
     id="rect129"
     inkscape:connector-curvature="0" /><path
     style="fill:#231f20"
     d="m 206.70043,127.2754 v 0.95 l -0.80655,0.475 -31.82501,-18.3825 v -0.95 l 0.80655,-0.475 z"
     id="polygon131"
     inkscape:connector-curvature="0" /><path
     style="fill:#231f20"
     d="m 238.52542,108.8929 0.80845,0.475 v 0.95 l -31.825,18.3825 -0.80844,-0.475 v -0.95 z"
     id="polygon133"
     inkscape:connector-curvature="0" /><path
     style="fill:#231f20"
     d="m 233.30042,105.3779 0.80845,1.425 -26.98,15.58 -0.8075,-1.3775 z"
     id="polygon135"
     inkscape:connector-curvature="0" /><path
     style="fill:#231f20"
     d="m 239.33387,110.3179 v -0.95 l 0.80751,-0.475 31.87155,18.3825 v 1.8525 z"
     id="polygon137"
     inkscape:connector-curvature="0" /><path
     style="fill:#231f20"
     d="m 240.14138,108.8929 -0.80751,0.475 -0.80845,-0.475 v -36.765 l 0.80845,-0.475 0.80751,0.475 z"
     id="polygon139"
     inkscape:connector-curvature="0" /><path
     style="fill:#231f20"
     d="m 207.50887,156.1079 h -1.61499 v -27.4075 l 0.80655,-0.475 0.80844,0.475 z"
     id="polygon141"
     inkscape:connector-curvature="0" /><path
     style="fill:#231f20"
     d="m 141.38793,129.1279 v -1.8525 l 31.8725,-18.3825 0.80844,0.475 v 0.95 z"
     id="polygon143"
     inkscape:connector-curvature="0" /><path
     style="fill:#231f20"
     d="m 143.43138,126.5629 h 1.615 v 29.545 h -1.615 z"
     id="rect145"
     inkscape:connector-curvature="0" /><path
     style="fill:#231f20"
     d="m 137.77887,126.5629 h 1.615 v 29.545 h -1.615 z"
     id="rect147"
     inkscape:connector-curvature="0" /><path
     style="fill:#231f20"
     d="m 108.75638,110.3179 v -0.95 l 0.80655,-0.475 31.825,18.3825 v 1.8525 z"
     id="polygon149"
     inkscape:connector-curvature="0" /><path
     style="fill:#231f20"
     d="m 76.931375,128.7004 -0.80845,-0.475 v -0.95 l 31.825005,-18.3825 0.80845,0.475 v 0.95 z"
     id="polygon151"
     inkscape:connector-curvature="0" /><path
     style="fill:#231f20"
     d="m 76.503875,122.3829 -0.8075,-1.3775 26.979055,-15.6275 0.80845,1.425 z"
     id="polygon153"
     inkscape:connector-curvature="0" /><path
     style="fill:#231f20"
     d="m 42.635425,109.8429 1.615,-0.95 31.8725,18.3825 v 0.95 l -0.80655,0.475 z"
     id="polygon155"
     inkscape:connector-curvature="0" /><path
     style="fill:#231f20"
     d="m 42.635425,71.1779 1.615,0.95 v 36.765 l -1.615,0.95 z"
     id="polygon157"
     inkscape:connector-curvature="0" /><path
     style="fill:#231f20"
     d="m 48.287927,74.930401 h 1.615 V 106.0904 h -1.615 z"
     id="rect159"
     inkscape:connector-curvature="0" /><path
     style="fill:#231f20"
     d="m 76.122925,51.8929 v 1.8525 l -31.8725,18.3825 -1.615,-0.95 z"
     id="polygon161"
     inkscape:connector-curvature="0" /><path
     style="fill:#231f20"
     d="m 108.75638,70.7504 v 0.9025 l -0.80845,0.475 -31.825005,-18.3825 v -1.8525 z"
     id="polygon163"
     inkscape:connector-curvature="0" /><path
     style="fill:#231f20"
     d="m 103.48388,74.2179 -0.80845,1.425 -26.979055,-15.58 0.8075,-1.425 z"
     id="polygon165"
     inkscape:connector-curvature="0" /><path
     style="fill:#231f20"
     d="m 107.94793,72.1279 0.80845,-0.475 0.80655,0.475 v 36.765 l -0.80655,0.475 -0.80845,-0.475 z"
     id="polygon167"
     inkscape:connector-curvature="0" /><path
     style="fill:#231f20"
     d="m 141.38793,51.8929 v 1.8525 l -31.825,18.3825 -0.80655,-0.475 v -0.9025 z"
     id="polygon169"
     inkscape:connector-curvature="0" /><path
     style="fill:#231f20"
     d="m 141.38793,53.7454 v -1.8525 l 32.68094,18.8575 v 0.9025 l -0.80844,0.475 z"
     id="polygon171"
     inkscape:connector-curvature="0" /><path
     style="fill:#231f20"
     d="m 137.77887,26.5279 h 1.615 v 27.929999 h -1.615 z"
     id="rect173"
     inkscape:connector-curvature="0" /><path
     style="fill:#231f20"
     d="m 143.43138,26.5279 h 1.615 v 27.929999 h -1.615 z"
     id="rect175"
     inkscape:connector-curvature="0" /><path
     style="fill:#231f20"
     d="m 205.89388,26.4804 h 1.61499 v 25.8875 l -0.80844,0.4275 -0.80655,-0.4275 z"
     id="polygon177"
     inkscape:connector-curvature="0" /><path
     style="fill:#231f20"
     d="m 337.27888,51.8929 v 1.8525 l -31.82501,18.3825 -0.8075,-0.475 v -0.9025 z"
     id="polygon179"
     inkscape:connector-curvature="0" /><path
     style="fill:#231f20"
     d="m 333.66888,26.5279 h 1.615 v 27.929999 h -1.615 z"
     id="rect181"
     inkscape:connector-curvature="0" /><path
     style="fill:#231f20"
     d="m 339.32137,26.5279 h 1.61405 v 27.929999 h -1.61405 z"
     id="rect183"
     inkscape:connector-curvature="0" /><path
     style="fill:#231f20"
     d="m 362.26293,66.2854 -0.80656,1.3775 -24.17749,-13.9175 v -1.8525 z"
     id="polygon185"
     inkscape:connector-curvature="0" /><path
     style="fill:#231f20"
     d="m 330.48542,82.3879 -3.60999,6.3175 -1.28156,-0.9975 3.41906,-5.9375 z"
     id="polygon187"
     inkscape:connector-curvature="0" /><path
     style="fill:#231f20"
     d="m 326.40042,80.6304 -3.08749,5.415 -1.32906,-0.9975 2.94501,-5.035 z"
     id="polygon189"
     inkscape:connector-curvature="0" /><path
     style="fill:#231f20"
     d="m 322.31637,78.8729 -2.56594,4.465 -1.32906,-0.95 2.4225,-4.1325 z"
     id="polygon191"
     inkscape:connector-curvature="0" /><path
     style="fill:#231f20"
     d="m 318.23138,77.1154 -2.04345,3.5625 -1.32906,-0.95 1.9,-3.23 z"
     id="polygon193"
     inkscape:connector-curvature="0" /><path
     style="fill:#231f20"
     d="m 314.14637,75.3579 -1.52094,2.66 -1.32906,-0.95 1.32906,-2.3275 z"
     id="polygon195"
     inkscape:connector-curvature="0" /><path
     style="fill:#231f20"
     d="m 310.06043,73.6479 -0.9975,1.71 -1.32906,-0.95 0.80751,-1.425 z"
     id="polygon197"
     inkscape:connector-curvature="0" /><path
     style="fill:#231f20"
     d="m 340.93543,269.4904 h -7.26655 l 2.80249,-27.74 0.80751,-0.4275 0.85499,0.4275 z"
     id="polygon199"
     inkscape:connector-curvature="0" /><path
     style="fill:#231f20"
     d="m 395.79792,233.2004 -3.61,6.31655 -22.2775,-16.10155 0.0485,-0.95 0.8075,-0.52345 z"
     id="polygon201"
     inkscape:connector-curvature="0" /><path
     style="fill:#231f20"
     d="m 68.292075,166.9227 c 0,-2.71035 0.7277,-4.83075 2.1831,-6.3631 1.4554,-1.5333 3.3345,-2.29995 5.63635,-2.29995 1.50765,0 2.86615,0.36005 4.07645,1.08015 1.2103,0.72105 2.13275,1.72425 2.7683,3.01245 0.63555,1.2882 0.9519,2.7493 0.9519,4.3814 0,1.65585 -0.3344,3.1369 -1.00225,4.44315 -0.66785,1.30625 -1.615,2.29615 -2.8405,2.9678 -1.2255,0.67165 -2.54695,1.00795 -3.9653,1.00795 -1.5371,0 -2.9108,-0.37145 -4.1211,-1.1134 -1.2103,-0.74195 -2.12705,-1.75655 -2.7512,-3.04 -0.62415,-1.28345 -0.93575,-2.6429 -0.93575,-4.07645 z m 2.2268,0.0285 c 0,1.9665 0.52915,3.51595 1.58745,4.64835 1.0583,1.1324 2.3864,1.69765 3.9824,1.69765 1.6264,0 2.96495,-0.5719 4.0166,-1.71475 1.0507,-1.14285 1.57605,-2.7645 1.57605,-4.86495 0,-1.3281 -0.2242,-2.48805 -0.67355,-3.4789 -0.44935,-0.99085 -1.10675,-1.7594 -1.9722,-2.3047 -0.86545,-0.5453 -1.83635,-0.81795 -2.9127,-0.81795 -1.5295,0 -2.8462,0.52535 -3.94915,1.5751 -1.10295,1.04975 -1.6549,2.80345 -1.6549,5.26015 z"
     id="path205"
     inkscape:connector-curvature="0" /><path
     style="fill:#231f20"
     d="m 76.931375,156.0604 h -1.615 v -27.36 l 0.80655,-0.475 0.80845,0.475 z"
     id="polygon207"
     inkscape:connector-curvature="0" /><path
     style="fill:#231f20"
     d="m 11.155275,193.7279 v -16.3286 h 2.16695 v 6.70985 h 8.44645 v -6.70985 h 2.16695 v 16.3286 h -2.16695 v -7.6893 h -8.44645 v 7.6893 z"
     id="path211"
     inkscape:connector-curvature="0" /><path
     style="fill:#231f20"
     d="m 26.265025,194.7672 1.4991,-0.20805 c 0.17385,0.8512 0.4674,1.4649 0.8816,1.8411 0.41515,0.37525 0.9234,0.56335 1.52665,0.56335 0.71535,0 1.3167,-0.2451 1.80405,-0.7334 0.48735,-0.4902 0.73055,-1.0963 0.73055,-1.8202 0,-0.6897 -0.2261,-1.2578 -0.6802,-1.7062 -0.45315,-0.4484 -1.02885,-0.67165 -1.72805,-0.67165 -0.28595,0 -0.64125,0.056 -1.0659,0.1672 l 0.16815,-1.32145 c 0.1007,0.0114 0.18145,0.0171 0.2432,0.0171 0.6403,0 1.21695,-0.16625 1.72995,-0.4997 0.513,-0.33345 0.7695,-0.8474 0.7695,-1.54185 0,-0.55005 -0.18715,-1.00605 -0.56145,-1.3661 -0.3743,-0.361 -0.8569,-0.5415 -1.44875,-0.5415 -0.58615,0 -1.0754,0.1843 -1.46585,0.5529 -0.39045,0.3686 -0.6422,0.9215 -0.75335,1.6587 l -1.4991,-0.26695 c 0.18335,-1.0089 0.6023,-1.79075 1.254,-2.3446 0.6517,-0.5548 1.463,-0.8322 2.43295,-0.8322 0.6688,0 1.28535,0.1425 1.84775,0.4294 0.5624,0.28595 0.99275,0.6764 1.292,1.1704 0.29735,0.49495 0.44745,1.01935 0.44745,1.5751 0,0.5282 -0.14155,1.0089 -0.4256,1.4421 -0.28405,0.4332 -0.70395,0.7771 -1.26065,1.0336 0.7239,0.1672 1.2863,0.51395 1.69005,1.0393 0.4028,0.52725 0.60515,1.18465 0.60515,1.97505 0,1.0697 -0.39045,1.97505 -1.17135,2.71795 -0.7809,0.7429 -1.76795,1.1153 -2.96115,1.1153 -1.07635,0 -1.9703,-0.32015 -2.6809,-0.95855 -0.7144,-0.64125 -1.12005,-1.4687 -1.2198,-2.48615 z"
     id="path215"
     inkscape:connector-curvature="0" /><path
     style="fill:#231f20"
     d="m 47.713175,188.00225 2.16695,0.5453 c -0.4522,1.7765 -1.26635,3.1312 -2.44055,4.06315 -1.17515,0.93195 -2.6125,1.39935 -4.31015,1.39935 -1.7575,0 -3.1863,-0.35815 -4.28735,-1.0754 -1.10105,-0.7163 -1.93895,-1.7556 -2.5137,-3.1141 -0.57475,-1.35945 -0.86165,-2.8196 -0.86165,-4.37855 0,-1.7005 0.32395,-3.18535 0.9728,-4.4517 0.64885,-1.26635 1.5713,-2.22965 2.76925,-2.8861 1.197,-0.65645 2.5137,-0.9861 3.952,-0.9861 1.63115,0 3.002,0.4161 4.1135,1.2483 1.11245,0.83315 1.8867,2.0026 2.3237,3.51215 l -2.1223,0.50065 c -0.3781,-1.1875 -0.92625,-2.052 -1.64445,-2.5935 -0.71915,-0.5415 -1.62355,-0.81225 -2.71225,-0.81225 -1.2521,0 -2.299,0.3002 -3.1407,0.90155 -0.84075,0.60135 -1.43165,1.4079 -1.7727,2.42155 -0.34105,1.01365 -0.5111,2.0577 -0.5111,3.13405 0,1.38795 0.2014,2.5992 0.60515,3.6347 0.40375,1.0355 1.03075,1.8088 1.8829,2.32085 0.85215,0.51205 1.77365,0.76855 2.7664,0.76855 1.20745,0 2.2287,-0.34865 3.06565,-1.0469 0.83695,-0.69825 1.4022,-1.7328 1.6986,-3.10555 z"
     id="path219"
     inkscape:connector-curvature="0" /><path
     style="fill:#231f20"
     d="m 52.468875,180.4754 -0.80845,-1.425 14.77345,-8.5025 0.8075,1.3775 z"
     id="polygon221"
     inkscape:connector-curvature="0" /></svg>